:SAMPLES-PER-SECOND 30
:FULLY-SPECIFIED
:DEGREES
302
root  1.52218 34.0786 16.8968 3.67925 30.4066 0.779513
LeftUpLeg  -7.6253 9.1591 0.49496
LeftLeg  13.9495 3.52127 0.635827
LeftFoot  -2.20403 -0.00310587 -0.136716
LeftToes  -14.7614 1.92152e-006 4.03786e-008
Spine  1.78022 0.733039 -1.77563
Spine1  3.38072 1.37615 -3.2217
RightShoulder  0.00688257 3.03258 5.19437
RightArm  -25.4428 -2.53736 43.6039
RightForeArm  35.9497 58.2198 16.6019
RightHand  1.05096 -6.89211 -16.9342
LeftShoulder1  0.0443128 1.02329 -9.72295
LeftArm  -18.838 14.8007 -66.8502
LeftForeArm  25.4628 -16.7062 -3.02839
LeftHand  0.210497 5.39338 4.0916
HEad  -2.85335 -28.339 1.39019
RightUpLeg  -10.1992 -8.29483 -8.26495
RightLeg  7.69991 -3.58381 -0.249697
RightFoot  10.1162 0.087403 -0.609873
RightToes  -36.9607 -0.1746 -0.27432
303
root  1.51641 34.0821 16.7937 3.70361 29.8705 0.835121
LeftUpLeg  -7.77658 9.92346 0.362119
LeftLeg  14.0311 3.27418 0.595957
LeftFoot  -2.19321 -0.00389299 -0.125018
LeftToes  -14.6147 1.92152e-006 4.03786e-008
Spine  1.69623 0.845853 -1.87133
Spine1  3.21434 1.62559 -3.43689
RightShoulder  0.00574986 2.85256 3.82926
RightArm  -17.6107 0.691539 38.5994
RightForeArm  34.4936 59.5 17.495
RightHand  1.0683 -7.4875 -15.834
LeftShoulder1  0.0441246 0.663015 -9.91827
LeftArm  -18.2799 15.3691 -66.0409
LeftForeArm  26.3327 -15.7983 -2.85466
LeftHand  0.209909 5.56606 3.94122
HEad  -0.96601 -26.9053 1.14914
RightUpLeg  -10.5379 -8.03677 -8.32487
RightLeg  7.79239 -3.3672 -0.240008
RightFoot  10.326 0.087862 -0.581368
RightToes  -36.5254 -0.174262 -0.27392
304
root  1.46775 34.0878 16.7226 3.88502 29.8074 0.916347
LeftUpLeg  -7.9363 10.352 0.2818
LeftLeg  13.7612 2.87121 0.508553
LeftFoot  -1.9803 -0.00563921 -0.0975791
LeftToes  -14.7595 1.92152e-006 4.03786e-008
Spine  1.64667 1.02679 -2.10813
Spine1  3.11186 2.01315 -3.92832
RightShoulder  0.0064193 2.85491 2.78489
RightArm  -12.2426 2.65028 36.4793
RightForeArm  34.0512 61.1594 18.7654
RightHand  1.07371 -8.2035 -14.5072
LeftShoulder1  0.0439906 0.31024 -9.35071
LeftArm  -19.0202 15.4025 -65.8401
LeftForeArm  27.4441 -14.6238 -2.63225
LeftHand  0.222258 5.68371 4.10014
HEad  -0.145855 -26.3044 1.95808
RightUpLeg  -10.8204 -8.64341 -8.29977
RightLeg  7.71441 -2.74709 -0.191866
RightFoot  10.493 0.0819923 -0.476284
RightToes  -36.3694 -0.173953 -0.273555
305
root  1.38715 34.0866 16.6737 4.02536 30.1358 1.03118
LeftUpLeg  -8.02143 10.3591 0.232051
LeftLeg  13.3826 2.54119 0.432709
LeftFoot  -1.68371 -0.00722817 -0.0718083
LeftToes  -14.9595 1.92152e-006 4.03786e-008
Spine  1.64741 1.18679 -2.30201
Spine1  3.09882 2.36129 -4.33656
RightShoulder  0.00880385 2.6923 2.14694
RightArm  -9.49995 3.7347 37.5633
RightForeArm  34.4045 62.7351 20.1125
RightHand  1.23387 -9.87516 -13.8306
LeftShoulder1  0.0439044 -0.0422682 -8.67988
LeftArm  -20.9055 15.3824 -65.9195
LeftForeArm  28.3044 -13.7368 -2.46589
LeftHand  0.244148 5.71316 4.51456
HEad  -0.388242 -26.1524 2.90106
RightUpLeg  -10.9695 -9.56389 -8.26891
RightLeg  7.70828 -2.12529 -0.147939
RightFoot  10.463 0.074302 -0.358994
RightToes  -36.3203 -0.173673 -0.273226
306
root  1.28467 34.0935 16.6399 4.10734 30.5732 1.09026
LeftUpLeg  -8.16629 10.599 0.267912
LeftLeg  13.1474 1.96315 0.325715
LeftFoot  -1.33005 -0.00897117 -0.0429289
LeftToes  -15.2006 1.92152e-006 4.03786e-008
Spine  1.76303 1.38443 -2.40178
Spine1  3.28999 2.80393 -4.58427
RightShoulder  0.0143179 2.86442 2.13514
RightArm  -9.19211 3.42882 41.1469
RightForeArm  33.1744 63.6381 20.9572
RightHand  1.29193 -10.4502 -13.6785
LeftShoulder1  0.0438594 -0.223933 -8.58337
LeftArm  -22.2892 15.1574 -65.5644
LeftForeArm  28.0162 -13.4861 -2.41935
LeftHand  0.268024 6.01836 4.71984
HEad  -1.15449 -26.2797 3.5999
RightUpLeg  -11.0213 -10.0809 -8.19084
RightLeg  7.64215 -1.98459 -0.135762
RightFoot  10.4714 0.07162 -0.329895
RightToes  -36.0494 -0.173419 -0.272932
